<?xml version="1.0" encoding="iso-8859-1"?>
<svg xmlns="http://www.w3.org/2000/svg" xmlns:xlink="http://www.w3.org/1999/xlink" version="1.1" viewBox="0 0 512 512" enable-background="new 0 0 512 512" width="512px" height="512px">
  <g>
    <path d="m374,0h-236c-76.2,0-138,61.8-138,138v236c0,76.2 61.8,138 138,138h236c76.2,0 138-61.8 138-138v-236c0-76.2-61.8-138-138-138zm-15,282.4c-3,0.8-6.55,1.5-9.95,2.1-5.8,1-11.575,1.7-17.375,1.7-2.6,0.1-3.687,1-4.788,3.2-14,27.6-32.594,51.7-55.494,72.5-2.1,1.9-4.397,3.7-6.797,5.4-8.4,5.8-16.798,6.2-25.498,0.6-7.4-4.7-13.799-10.6-19.699-17.1-18.1-20-30.5-43.4-40.4-68.2-13.5-33.9-21.1-69.25-26.1-105.15l-.3-2.45h39.8l.3,4.15c1.5,11.6 3.3,23.075 5.6,34.475 8.3,41.7 23,80.737 49.6,114.437 5.3,6.7 5.3,6.719 10.9,0.519 13-14.4 23.9-30.391 32.9-47.591 1.1-2.1 1-3.095-1.2-4.395-22.2-12.9-33.9-32.998-38.3-57.698-2.7-14.8-2.4-29.499 2.8-43.799 9.1-24.9 30.8-36.899 56.9-34.299 29.2,3 41.4,22.9 43.7,45.8 1.7,16.1-0.6,31.5-6.1,46.6-0.4,1.1-1.4,3.7-1.4,3.7s-2.2,0.2-3.8,0.3c-10.3,0.8-19.7-0.9-27.3-8.6-1.1-1.1-2.6-2.8-2.6-2.8s0.6-2.4 0.9-3.5c3.1-11 4.9-22.3 2.3-33.7-2.1-8.9-7.2-13.5-14.6-13.2-5.2,0.2-8.7,3-11.3,7.2-2.7,4.6-3.7,9.7-4,14.9-0.7,13 1.2,25.6 8.2,36.8 11.7,18.7 29.45,24.9 50.55,22.9 4.365-0.397 8.55-1.091 12.55-2.176v-0.023h0.2c-0.033,0.009-0.2,0.015-0.2,0.024v27.376z" fill="#FFFFFF"/>
  </g>
</svg>
