<svg id="goog" xmlns="http://www.w3.org/2000/svg" viewBox="0 0 90 90"><path d="M74.5 0H50.143c-6.382 0-14.42.942-21.158 6.49-5.09 4.374-7.566 10.392-7.566 15.828 0 9.21 7.094 18.546 19.625 18.546 1.182 0 2.477-.12 3.787-.235-.592 1.412-1.19 2.593-1.19 4.604 0 3.662 1.894 5.902 3.548 8.03-5.314.352-15.25.94-22.583 5.427-6.975 4.144-9.107 10.16-9.107 14.415C15.5 81.845 23.778 90 40.923 90 61.26 90 72.02 78.78 72.02 67.67c0-8.143-4.728-12.164-9.93-16.534l-4.26-3.305c-1.294-1.064-3.067-2.478-3.067-5.08 0-2.596 1.773-4.253 3.307-5.788 4.964-3.896 9.933-8.03 9.933-16.77 0-8.98-5.68-13.704-8.396-15.947h7.334L74.5 0zM64.102 72.28c0 7.32-6.033 12.752-17.385 12.752-12.648 0-20.81-6.024-20.81-14.405 0-8.393 7.57-11.218 10.167-12.164 4.97-1.656 11.352-1.89 12.414-1.89 1.183 0 1.774 0 2.724.114 8.988 6.377 12.89 9.57 12.89 15.592zm-9.46-38.03c-1.894 1.885-5.09 3.304-8.046 3.304-10.164 0-14.772-13.113-14.772-21.023 0-3.07.592-6.257 2.598-8.74 1.893-2.36 5.2-3.898 8.277-3.898 9.812 0 14.9 13.23 14.9 21.73 0 2.13-.242 5.906-2.958 8.627z"/></svg>
