<svg id="vine" xmlns="http://www.w3.org/2000/svg" viewBox="0 0 512 512"><path d="M374 0H138C61.8 0 0 61.8 0 138v236c0 76.2 61.8 138 138 138h236c76.2 0 138-61.8 138-138V138C512 61.8 450.2 0 374 0zm-15 282.4c-3 .8-6.55 1.5-9.95 2.1-5.8 1-11.575 1.7-17.375 1.7-2.6.1-3.687 1-4.788 3.2-14 27.6-32.594 51.7-55.494 72.5-2.1 1.9-4.397 3.7-6.797 5.4-8.4 5.8-16.798 6.2-25.498.6-7.4-4.7-13.8-10.6-19.7-17.1-18.1-20-30.5-43.4-40.4-68.2-13.5-33.9-21.1-69.25-26.1-105.15l-.3-2.45h39.8l.3 4.15c1.5 11.6 3.3 23.075 5.6 34.475 8.3 41.7 23 80.737 49.6 114.437 5.3 6.7 5.3 6.72 10.9.52 13-14.4 23.9-30.392 32.9-47.592 1.1-2.1 1-3.095-1.2-4.395-22.2-12.9-33.9-32.998-38.3-57.698-2.7-14.8-2.4-29.5 2.8-43.8 9.1-24.9 30.8-36.898 56.9-34.298 29.2 3 41.4 22.9 43.7 45.8 1.7 16.1-.6 31.5-6.1 46.6-.4 1.1-1.4 3.7-1.4 3.7s-2.2.2-3.8.3c-10.3.8-19.7-.9-27.3-8.6-1.1-1.1-2.6-2.8-2.6-2.8s.6-2.4.9-3.5c3.1-11 4.9-22.3 2.3-33.7-2.1-8.9-7.2-13.5-14.6-13.2-5.2.2-8.7 3-11.3 7.2-2.7 4.6-3.7 9.7-4 14.9-.7 13 1.2 25.6 8.2 36.8 11.7 18.7 29.45 24.9 50.55 22.9 4.366-.398 8.55-1.092 12.55-2.177V255h.2c-.032.01-.2.015-.2.024V282.4z" fill="#FFF"/></svg>
